<svg xmlns="http://www.w3.org/2000/svg" viewBox="0 0 64 64">
  <rect width="64" height="64" rx="14" fill="#0a0a0f"/>
  <rect x="1" y="1" width="62" height="62" rx="13" fill="none" stroke="rgba(255,255,255,0.12)" stroke-width="2"/>
  <path
    d="M25.5 14.5c-5.2 0-8 2.9-8 8.1v3.1c0 2.6-1.2 4.2-3.5 4.7v3.2c2.3.5 3.5 2.1 3.5 4.7v3.1c0 5.2 2.8 8.1 8 8.1h2.2v-5.1h-1.9c-2 0-3.1-1.1-3.1-3.2v-4.1c0-3.1-1.3-5.1-3.8-6.1 2.5-1 3.8-3 3.8-6.1v-4.1c0-2.1 1.1-3.2 3.1-3.2h1.9v-5.1h-2.2Zm12.7 0v5.1h1.9c2 0 3.1 1.1 3.1 3.2v4.1c0 3.1 1.3 5.1 3.8 6.1-2.5 1-3.8 3-3.8 6.1v4.1c0 2.1-1.1 3.2-3.1 3.2h-1.9v5.1h2.2c5.2 0 8-2.9 8-8.1v-3.1c0-2.6 1.2-4.2 3.5-4.7v-3.2c-2.3-.5-3.5-2.1-3.5-4.7v-3.1c0-5.2-2.8-8.1-8-8.1h-2.2Z"
    fill="#7c5cfc"
  />
</svg>
