<svg xmlns="http://www.w3.org/2000/svg" viewBox="0 0 96 96">
  <defs>
    <linearGradient id="overcastFront" x1="16" y1="32" x2="84" y2="78">
      <stop stop-color="#EDF2F7"/>
      <stop offset="1" stop-color="#90A4B8"/>
    </linearGradient>
    <linearGradient id="overcastBack" x1="26" y1="20" x2="82" y2="64">
      <stop stop-color="#D9E2EC"/>
      <stop offset="1" stop-color="#65758B"/>
    </linearGradient>
  </defs>
  <path fill="url(#overcastBack)" opacity=".78" d="M32 62c-8 0-14-6-14-13 0-7 5-12 12-13 3-10 12-16 23-16 13 0 23 9 25 21 7 2 11 7 11 13 0 5-5 8-11 8H32Z"/>
  <path fill="url(#overcastFront)" d="M26 78c-10 0-18-7-18-16 0-8 6-15 16-16 4-12 15-20 28-20 16 0 29 12 30 27 7 3 12 8 12 15 0 6-6 10-13 10H26Z"/>
  <path fill="#FFFFFF" opacity=".22" d="M25 74h55c5 0 9-3 9-7 0-4-4-8-10-10-2-14-13-25-27-25-11 0-21 7-25 19-8 1-14 6-14 12s5 11 12 11Z"/>
</svg>
